<svg width="55.000000" height="55.000000" viewBox="0 0 55 55" fill="none" xmlns="http://www.w3.org/2000/svg" xmlns:xlink="http://www.w3.org/1999/xlink">
	<desc>
			Created with Pixso.
	</desc>
	<defs>
		<clipPath id="clip16_7">
			<rect id="shopping-cart icon" rx="0.000000" width="54.000000" height="54.000000" transform="translate(0.500000 0.500000)" fill="white" fill-opacity="0"/>
		</clipPath>
	</defs>
	<rect id="shopping-cart icon" rx="0.000000" width="54.000000" height="54.000000" transform="translate(0.500000 0.500000)" fill="#FFFFFF" fill-opacity="0"/>
	<g clip-path="url(#clip16_7)">
		<path id="Vector" d="M46.76 9L8.23 9C7.64 9 7.07 9.23 6.65 9.65C6.23 10.07 6 10.64 6 11.23L6 41.5C6 42.1 6.23 42.66 6.65 43.08C7.07 43.5 7.64 43.74 8.23 43.74L23.42 43.74L22.84 48.42C21.41 48.93 20.04 49.6 18.76 50.42C18.61 50.52 18.49 50.67 18.43 50.84C18.37 51.02 18.36 51.21 18.42 51.38C18.47 51.56 18.58 51.72 18.73 51.83C18.87 51.94 19.05 52 19.24 52L35.75 52C35.94 52 36.12 51.94 36.26 51.83C36.41 51.72 36.52 51.56 36.57 51.38C36.63 51.21 36.62 51.02 36.56 50.84C36.5 50.67 36.38 50.52 36.23 50.42C34.95 49.6 33.58 48.93 32.15 48.42L31.57 43.74L46.76 43.74C47.35 43.74 47.92 43.5 48.34 43.08C48.76 42.66 48.99 42.1 49 41.5L49 11.23C48.99 10.64 48.76 10.07 48.34 9.65C47.92 9.23 47.35 9 46.76 9ZM8.23 10.72L46.76 10.72C46.9 10.72 47.03 10.77 47.12 10.87C47.22 10.96 47.27 11.09 47.28 11.23L47.28 35.14L7.71 35.14L7.71 11.23C7.72 11.09 7.77 10.96 7.87 10.87C7.96 10.77 8.09 10.72 8.23 10.72ZM23.37 50.28L22.81 50.28C24.17 49.73 25.84 49.24 27.5 49.24C29.14 49.24 30.81 49.73 32.18 50.28L23.37 50.28ZM30.35 47.88C28.48 47.4 26.51 47.4 24.64 47.88L25.16 43.74L29.83 43.74L30.35 47.88ZM47.28 41.5C47.27 41.64 47.22 41.77 47.12 41.87C47.03 41.96 46.9 42.02 46.76 42.02L8.23 42.02C8.09 42.02 7.96 41.96 7.87 41.87C7.77 41.77 7.72 41.64 7.71 41.5L7.71 36.86L47.28 36.86L47.28 41.5Z" fill="#005AAB" fill-opacity="1.000000" fill-rule="nonzero"/>
		<path id="Vector" d="M26.12 40.3L28.87 40.3C29.1 40.3 29.32 40.21 29.48 40.05C29.64 39.89 29.73 39.67 29.73 39.44C29.73 39.21 29.64 38.99 29.48 38.83C29.32 38.67 29.1 38.58 28.87 38.58L26.12 38.58C25.89 38.58 25.67 38.67 25.51 38.83C25.35 38.99 25.26 39.21 25.26 39.44C25.26 39.67 25.35 39.89 25.51 40.05C25.67 40.21 25.89 40.3 26.12 40.3Z" fill="#005AAB" fill-opacity="1.000000" fill-rule="nonzero"/>
		<path id="Vector" d="M14.42 14.84L16.56 14.84L20.49 26.64C20.52 26.73 20.56 26.81 20.62 26.88C20.08 26.88 19.55 27.08 19.15 27.43C18.74 27.78 18.47 28.27 18.4 28.81C18.32 29.34 18.44 29.88 18.73 30.34C19.02 30.79 19.47 31.12 19.99 31.27C20.51 31.42 21.06 31.38 21.55 31.15C22.04 30.93 22.43 30.53 22.65 30.04C22.88 29.55 22.91 28.99 22.76 28.47C22.6 27.96 22.26 27.51 21.8 27.23L28.98 27.23C28.97 27.4 28.96 27.57 28.96 27.74C28.96 28.81 29.27 29.86 29.87 30.75C30.47 31.64 31.31 32.34 32.3 32.75C33.29 33.16 34.38 33.27 35.43 33.06C36.48 32.85 37.45 32.33 38.21 31.57C38.96 30.82 39.48 29.85 39.69 28.8C39.9 27.75 39.79 26.66 39.38 25.67C38.97 24.68 38.28 23.83 37.39 23.24C36.49 22.64 35.45 22.33 34.38 22.33C34.2 22.33 34.04 22.33 33.87 22.35L35.19 18.38C35.23 18.25 35.25 18.12 35.23 17.98C35.2 17.85 35.15 17.72 35.07 17.61C34.99 17.5 34.89 17.41 34.77 17.35C34.65 17.28 34.51 17.25 34.38 17.25L23.37 17.25C23.14 17.25 22.92 17.34 22.76 17.5C22.6 17.66 22.51 17.88 22.51 18.11C22.51 18.34 22.6 18.56 22.76 18.72C22.92 18.88 23.14 18.97 23.37 18.97L33.18 18.97L32.38 21.38C32.36 21.38 32.33 21.38 32.31 21.38L24.74 21.38C24.51 21.38 24.3 21.47 24.13 21.63C23.97 21.79 23.88 22.01 23.88 22.24C23.88 22.47 23.97 22.69 24.13 22.85C24.3 23.01 24.51 23.1 24.74 23.1L31.59 23.1C30.65 23.67 29.9 24.51 29.44 25.51L21.92 25.51L17.99 13.71C17.93 13.54 17.82 13.39 17.68 13.29C17.53 13.18 17.36 13.12 17.18 13.12L14.42 13.12C14.2 13.12 13.98 13.21 13.81 13.37C13.65 13.54 13.56 13.75 13.56 13.98C13.56 14.21 13.65 14.43 13.81 14.59C13.98 14.75 14.2 14.84 14.42 14.84ZM20.62 29.63C20.51 29.63 20.41 29.6 20.33 29.55C20.24 29.49 20.18 29.41 20.14 29.32C20.1 29.22 20.09 29.12 20.11 29.02C20.13 28.92 20.18 28.83 20.25 28.75C20.32 28.68 20.41 28.63 20.51 28.61C20.61 28.59 20.72 28.6 20.81 28.64C20.91 28.68 20.99 28.75 21.04 28.83C21.1 28.92 21.13 29.02 21.13 29.12C21.13 29.26 21.08 29.39 20.98 29.48C20.88 29.58 20.75 29.63 20.62 29.63ZM38.07 27.74C38.07 28.47 37.86 29.19 37.45 29.8C37.04 30.41 36.47 30.88 35.79 31.16C35.11 31.44 34.37 31.51 33.65 31.37C32.94 31.23 32.28 30.88 31.76 30.36C31.24 29.84 30.89 29.18 30.75 28.46C30.61 27.75 30.68 27 30.96 26.33C31.24 25.65 31.71 25.07 32.32 24.67C32.93 24.26 33.64 24.04 34.38 24.04C35.36 24.05 36.3 24.44 36.99 25.13C37.68 25.82 38.07 26.76 38.07 27.74Z" fill="#005AAB" fill-opacity="1.000000" fill-rule="nonzero"/>
		<path id="Vector" d="M32.61 28.51L33.99 29.2C34.18 29.29 34.39 29.32 34.6 29.26C34.8 29.21 34.97 29.08 35.09 28.91L36.47 26.84C36.59 26.65 36.63 26.42 36.59 26.2C36.54 25.98 36.41 25.78 36.22 25.66C36.04 25.53 35.8 25.49 35.58 25.53C35.36 25.57 35.16 25.7 35.04 25.89L34.08 27.32L33.38 26.97C33.18 26.87 32.95 26.86 32.73 26.93C32.52 27 32.34 27.16 32.24 27.36C32.13 27.56 32.12 27.8 32.19 28.01C32.26 28.23 32.41 28.41 32.62 28.51L32.61 28.51Z" fill="#005AAB" fill-opacity="1.000000" fill-rule="nonzero"/>
	</g>
</svg>
